<svg xmlns="http://www.w3.org/2000/svg" xmlns:xlink="http://www.w3.org/1999/xlink" style="display:block;" width="100%" height="100%" viewBox="-1661.180697264596,-9.343661856366897,3966.016923577556,1076.7116257368755"><defs><style>
                                    #olivia_gradient {
                                        --color-stop-1: #ffffff;
                                        --color-stop-2: #eeeeee;
                                        --opacity-stop: 1;
                                    }
                                    .olivia-f0{
                                        font-size: 18px;
                                        fill: #757575;
                                    }
                                    .olivia-f1{
                                        font-size: 14px;
                                        fill: #757575;
                                    }
                                    .boc-dark .olivia-f0,.boc-dark .olivia-f1{
                                        fill: #aeaeae;
                                    }
                                    .boc-dark #olivia_gradient {
                                        --color-stop-1: #646464;
                                        --color-stop-2: #363636;
                                        --opacity-stop: 1;
                                    }
                                </style>
                                <linearGradient id="olivia_gradient" x1="0%" y1="0%" x2="0%" y2="100%"><stop offset="0%" stop-color="var(--color-stop-1)" stop-opacity="var(--opacity-stop)"></stop><stop offset="100%" stop-color="var(--color-stop-2)" stop-opacity="var(--opacity-stop)"></stop></linearGradient><filter id="_6if7" x="0" y="0" width="200%" height="200%"><feOffset result="offOut" in="SourceAlpha" dx="5" dy="5"></feOffset><feGaussianBlur result="blurOut" in="offOut" stdDeviation="5"></feGaussianBlur><feBlend in="SourceGraphic" in2="blurOut" mode="normal"></feBlend></filter><linearGradient id="_uk0h" x1="0%" y1="0%" x2="0%" y2="100%"><stop offset="0%" style="stop-color:#646464;stop-opacity:1"></stop><stop offset="100%" style="stop-color:#363636;stop-opacity:1"></stop></linearGradient><filter x="-50%" y="-50%" width="200%" height="200%" filterUnits="objectBoundingBox" id="isla-shadow"><feOffset dx="0" dy="4" in="SourceAlpha" result="shadowOffsetOuter1"></feOffset><feGaussianBlur stdDeviation="10" in="shadowOffsetOuter1" result="shadowBlurOuter1"></feGaussianBlur><feColorMatrix values="0 0 0 0 0   0 0 0 0 0   0 0 0 0 0  0 0 0 0.2 0" in="shadowBlurOuter1" type="matrix" result="shadowMatrixOuter1"></feColorMatrix><feMerge><feMergeNode in="shadowMatrixOuter1"></feMergeNode><feMergeNode in="SourceGraphic"></feMergeNode></feMerge></filter></defs><g data-n-id="1" style="opacity: 1" transform="matrix(1,0,0,1,145,0)" class="node" data-sl="0" data-l="0"><rect x="0" y="0" height="120" width="250" fill="#039BE5" stroke-width="1" stroke="#aeaeae" rx="7" ry="7"></rect><text data-width="230" style="font-size: 18px;" fill="#ffffff" x="125" y="95" text-anchor="middle">General Staff</text></g><g data-n-id="2" style="opacity: 1" transform="matrix(1,0,0,1,145,180)" class="node" data-sl="1" data-l="1"><rect x="0" y="0" height="120" width="250" fill="#039BE5" stroke-width="1" stroke="#aeaeae" rx="7" ry="7"></rect><text data-width="230" style="font-size: 18px;" fill="#ffffff" x="125" y="95" text-anchor="middle">Field Army</text></g><g data-n-id="3" style="opacity: 1" transform="matrix(1,0,0,1,0,360)" class="node" data-sl="2" data-l="2"><rect x="0" y="0" height="120" width="250" fill="#039BE5" stroke-width="1" stroke="#aeaeae" rx="7" ry="7"></rect><text data-width="230" style="font-size: 18px;" fill="#ffffff" x="125" y="95" text-anchor="middle">1st Division</text></g><g data-n-id="5" style="opacity: 1" transform="matrix(1,0,0,1,0,540)" class="node" data-sl="3" data-l="3"><rect x="0" y="0" height="120" width="250" fill="#039BE5" stroke-width="1" stroke="#aeaeae" rx="7" ry="7"></rect><text data-width="230" style="font-size: 18px;" fill="#ffffff" x="125" y="95" text-anchor="middle">Brigade A</text></g><g data-n-id="7" style="opacity: 1" transform="matrix(1,0,0,1,0,720)" class="node" data-sl="4" data-l="4"><rect x="0" y="0" height="120" width="250" fill="#039BE5" stroke-width="1" stroke="#aeaeae" rx="7" ry="7"></rect><text data-width="230" style="font-size: 18px;" fill="#ffffff" x="125" y="95" text-anchor="middle">Battalion 1</text></g><g data-n-id="4" style="opacity: 1" transform="matrix(1,0,0,1,290,360)" class="node" data-sl="2" data-l="2"><rect x="0" y="0" height="120" width="250" fill="#039BE5" stroke-width="1" stroke="#aeaeae" rx="7" ry="7"></rect><text data-width="230" style="font-size: 18px;" fill="#ffffff" x="125" y="95" text-anchor="middle">2nd Division</text></g><g data-n-id="6" style="opacity: 1" transform="matrix(1,0,0,1,290,540)" class="node" data-sl="3" data-l="3"><rect x="0" y="0" height="120" width="250" fill="#039BE5" stroke-width="1" stroke="#aeaeae" rx="7" ry="7"></rect><text data-width="230" style="font-size: 18px;" fill="#ffffff" x="125" y="95" text-anchor="middle">Brigade B</text></g><g data-n-id="8" style="opacity: 1" transform="matrix(1,0,0,1,290,720)" class="node" data-sl="4" data-l="4"><rect x="0" y="0" height="120" width="250" fill="#039BE5" stroke-width="1" stroke="#aeaeae" rx="7" ry="7"></rect><text data-width="230" style="font-size: 18px;" fill="#ffffff" x="125" y="95" text-anchor="middle">Battalion 2</text></g><g data-l-id="[1][2]" class="link "><path stroke-linejoin="round" stroke="#aeaeae" stroke-width="1px" fill="none" d="M270,120 L270,180"></path></g><g data-ctrl-ec-id="1" transform="matrix(1,0,0,1,255,105)" style="cursor:pointer;"><circle cx="15" cy="15" r="15" class="boc-fill" stroke="#aeaeae" stroke-width="1"></circle><line x1="4" y1="15" x2="26" y2="15" stroke-width="1" stroke="#aeaeae"></line></g><g data-l-id="[2][3]" class="link "><path stroke-linejoin="round" stroke="#aeaeae" stroke-width="1px" fill="none" d="M270,300 270,325 Q270,330 265,330 L130,330 Q125,330 125,335 L125,360"></path></g><g data-l-id="[2][4]" class="link "><path stroke-linejoin="round" stroke="#aeaeae" stroke-width="1px" fill="none" d="M270,300 270,325 Q270,330 275,330 L410,330 Q415,330 415,335 L415,360"></path></g><g data-ctrl-ec-id="2" transform="matrix(1,0,0,1,255,285)" style="cursor:pointer;"><circle cx="15" cy="15" r="15" class="boc-fill" stroke="#aeaeae" stroke-width="1"></circle><line x1="4" y1="15" x2="26" y2="15" stroke-width="1" stroke="#aeaeae"></line></g><g data-l-id="[3][5]" class="link "><path stroke-linejoin="round" stroke="#aeaeae" stroke-width="1px" fill="none" d="M125,480 L125,540"></path></g><g data-ctrl-ec-id="3" transform="matrix(1,0,0,1,110,465)" style="cursor:pointer;"><circle cx="15" cy="15" r="15" class="boc-fill" stroke="#aeaeae" stroke-width="1"></circle><line x1="4" y1="15" x2="26" y2="15" stroke-width="1" stroke="#aeaeae"></line></g><g data-l-id="[5][7]" class="link "><path stroke-linejoin="round" stroke="#aeaeae" stroke-width="1px" fill="none" d="M125,660 L125,720"></path></g><g data-ctrl-ec-id="5" transform="matrix(1,0,0,1,110,645)" style="cursor:pointer;"><circle cx="15" cy="15" r="15" class="boc-fill" stroke="#aeaeae" stroke-width="1"></circle><line x1="4" y1="15" x2="26" y2="15" stroke-width="1" stroke="#aeaeae"></line></g><g data-l-id="[4][6]" class="link "><path stroke-linejoin="round" stroke="#aeaeae" stroke-width="1px" fill="none" d="M415,480 L415,540"></path></g><g data-ctrl-ec-id="4" transform="matrix(1,0,0,1,400,465)" style="cursor:pointer;"><circle cx="15" cy="15" r="15" class="boc-fill" stroke="#aeaeae" stroke-width="1"></circle><line x1="4" y1="15" x2="26" y2="15" stroke-width="1" stroke="#aeaeae"></line></g><g data-l-id="[6][8]" class="link "><path stroke-linejoin="round" stroke="#aeaeae" stroke-width="1px" fill="none" d="M415,660 L415,720"></path></g><g data-ctrl-ec-id="6" transform="matrix(1,0,0,1,400,645)" style="cursor:pointer;"><circle cx="15" cy="15" r="15" class="boc-fill" stroke="#aeaeae" stroke-width="1"></circle><line x1="4" y1="15" x2="26" y2="15" stroke-width="1" stroke="#aeaeae"></line></g></svg>